<?xml version="1.0" standalone="no"?>
<!DOCTYPE svg PUBLIC "-//W3C//DTD SVG 20010904//EN"
 "http://www.w3.org/TR/2001/REC-SVG-20010904/DTD/svg10.dtd">
<svg version="1.0" xmlns="http://www.w3.org/2000/svg"
 width="640.000000pt" height="640.000000pt" viewBox="0 0 640.000000 640.000000"
 preserveAspectRatio="xMidYMid meet">
<metadata>
Created by potrace 1.11, written by Peter Selinger 2001-2013
</metadata>
<g transform="translate(0.000000,640.000000) scale(0.100000,-0.100000)"
fill="#000000" stroke="none">
<path d="M1737 5004 c-1 -1 -42 -5 -92 -8 -49 -3 -99 -8 -110 -10 -11 -2 -40
-7 -65 -11 -25 -4 -56 -9 -70 -12 -56 -9 -181 -47 -275 -84 -377 -146 -686
-463 -840 -859 -43 -111 -87 -262 -100 -345 -4 -22 -11 -67 -16 -100 -31 -197
-31 -552 1 -740 5 -33 13 -80 16 -105 3 -25 10 -53 15 -62 5 -9 9 -26 9 -37 0
-72 141 -404 223 -526 155 -229 365 -414 600 -525 100 -48 254 -103 312 -113
17 -3 53 -10 80 -16 129 -27 230 -35 435 -34 299 2 562 64 827 197 l108 55 0
355 c0 196 -2 356 -4 356 -2 0 -44 -27 -94 -61 -148 -99 -321 -180 -468 -218
-118 -30 -172 -36 -339 -35 -183 1 -274 20 -403 84 -335 168 -516 548 -511
1070 1 127 7 215 19 285 61 363 227 626 475 754 142 73 267 99 457 96 277 -5
490 -75 754 -246 58 -38 108 -69 110 -69 2 0 4 160 4 356 l0 356 -100 48
c-162 78 -301 130 -394 147 -13 2 -27 6 -31 8 -8 5 -186 36 -240 41 -49 5
-289 12 -293 8z"/>
<path d="M4896 5003 c-1 -1 -20 -3 -41 -4 -378 -14 -772 -166 -1024 -394 -370
-335 -545 -786 -545 -1400 0 -190 12 -323 41 -465 8 -41 17 -88 20 -104 11
-66 88 -276 139 -376 30 -60 84 -151 121 -202 86 -122 257 -290 374 -368 218
-147 495 -242 775 -267 154 -13 457 -7 574 12 118 19 221 38 250 45 184 47
261 70 401 126 52 20 137 58 189 84 l95 48 -1 818 c-1 451 -2 826 -3 834 -1
13 -74 15 -603 13 -332 -1 -613 -2 -626 -2 l-22 -1 2 -297 3 -298 240 0 240 0
3 -334 c2 -261 -1 -336 -10 -343 -29 -19 -130 -44 -228 -57 -62 -9 -326 -7
-380 3 -40 7 -153 36 -175 45 -299 126 -474 346 -552 696 -35 160 -48 417 -29
600 55 533 331 855 796 929 75 12 348 14 397 2 11 -2 43 -8 70 -11 56 -8 258
-59 300 -76 15 -6 37 -15 48 -19 84 -32 233 -103 316 -151 l99 -57 -2 360 -3
361 -110 47 c-193 82 -389 141 -552 166 -21 3 -65 9 -98 14 -100 15 -213 23
-353 24 -73 1 -134 0 -136 -1z"/>
</g>
</svg>
